<svg xmlns="http://www.w3.org/2000/svg" xmlns:xlink="http://www.w3.org/1999/xlink" width="89.977" height="82.657" viewBox="0 0 89.977 82.657">
  <defs>
    <clipPath id="clip-path">
      <rect id="Rectangle_15" data-name="Rectangle 15" width="89.977" height="82.657" fill="none"/>
    </clipPath>
  </defs>
  <g id="Group_10" data-name="Group 10" clip-path="url(#clip-path)">
    <path id="Path_7" data-name="Path 7" d="M88.891,1.841H38.34a1.1,1.1,0,0,0-1.1,1.1V6.634H33.547a1.1,1.1,0,0,0-1.1,1.1V57.747l-31.316,0H1.1a1.256,1.256,0,0,0-.211.02c-.02,0-.035.011-.055.015a1.062,1.062,0,0,0-.148.047l-.07.035a1.208,1.208,0,0,0-.118.063c-.027.019-.046.039-.07.058s-.062.047-.094.075a1.307,1.307,0,0,0-.09.1c-.015.02-.031.035-.046.055l0,.008a1.149,1.149,0,0,0-.09.156.22.22,0,0,1-.016.031.772.772,0,0,0-.039.129c-.008.027-.019.055-.023.078s0,.043-.008.063A.968.968,0,0,0,0,58.841V81.56a1.236,1.236,0,0,0,.016.171c0,.016,0,.032,0,.051s.019.059.027.09.02.078.035.117a.174.174,0,0,0,.016.028.911.911,0,0,0,.09.16l0,.008c0,.007.011.011.015.019a.9.9,0,0,0,.145.156.438.438,0,0,0,.066.055,1.589,1.589,0,0,0,.133.094c.024.015.051.027.074.039a.787.787,0,0,0,.16.058.426.426,0,0,0,.067.02.979.979,0,0,0,.242.031H42.656a.955.955,0,0,0,.242-.031.559.559,0,0,0,.063-.02.871.871,0,0,0,.168-.062.612.612,0,0,0,.07-.039,1.041,1.041,0,0,0,.137-.094.613.613,0,0,0,.062-.055,1.044,1.044,0,0,0,.145-.16c0-.008.011-.011.015-.019l0-.008a.944.944,0,0,0,.09-.16.174.174,0,0,1,.016-.028c.015-.035.023-.078.035-.117a.715.715,0,0,0,.027-.09.2.2,0,0,0,0-.05,1.156,1.156,0,0,0,.016-.172V79.1H84.059a1.1,1.1,0,0,0,1.1-1.1V74.286h3.715a1.1,1.1,0,0,0,1.1-1.1V2.934A1.076,1.076,0,0,0,88.891,1.841Zm-47.328,77.6L28.258,70.207l13.305-9.254ZM2.2,60.958l13.3,9.254L2.2,79.446Zm15.23,10.594.84.586a6.545,6.545,0,0,0,7.215,0l.835-.582,12.82,8.9-34.527,0Zm6.8-1.231a4.32,4.32,0,0,1-4.7,0L4.614,59.95H39.149Zm58.738,6.586H43.766V58.84a1.032,1.032,0,0,0-.016-.156c0-.02,0-.039-.008-.063s-.019-.054-.027-.082c-.012-.043-.024-.086-.039-.125,0-.011-.012-.019-.016-.031a.872.872,0,0,0-.09-.156l0-.008a.488.488,0,0,0-.043-.055,1.121,1.121,0,0,0-.089-.105c-.028-.027-.059-.047-.086-.07s-.051-.043-.078-.063-.075-.039-.11-.058a.477.477,0,0,0-.078-.04.943.943,0,0,0-.141-.042c-.019-.008-.039-.012-.062-.02a1.256,1.256,0,0,0-.211-.02h-8.02V8.84H82.972Zm4.816-4.816H85.176V7.736a1.1,1.1,0,0,0-1.1-1.1H39.445V4.04H87.793ZM3.113,53.919a1.1,1.1,0,0,0,2.109,0L8.289,43.767a1.1,1.1,0,0,0,.047-.317V6.18h.086v9.785a1.1,1.1,0,1,0,2.2,0l0-10.887a1.1,1.1,0,0,0-1.1-1.1H8.238C7.824,1.707,6.16,0,4.172,0,1.832,0,0,2.231,0,5.074V43.441a1.08,1.08,0,0,0,.046.317ZM6.132,42.345H2.2V18.861h3.93ZM4.168,49.79,2.582,44.548H5.75Zm0-47.582c1.066,0,1.964,1.316,1.964,2.871V16.657H2.2V5.079C2.2,3.52,3.1,2.208,4.168,2.208Zm11.988,45.9H28.73a2.032,2.032,0,0,0,2.031-2.031V24.134a2.022,2.022,0,0,0-2.031-2.008H16.156a2.012,2.012,0,0,0-2.008,2.008V46.083A2.021,2.021,0,0,0,16.156,48.11Zm.195-23.781h12.2V45.907h-12.2ZM43.96,11.407H40.523A3.4,3.4,0,0,0,37.132,14.8v3.414a3.4,3.4,0,0,0,3.391,3.39H43.96a3.392,3.392,0,0,0,3.391-3.39V14.8a3.4,3.4,0,0,0-3.391-3.391m1.188,6.809A1.19,1.19,0,0,1,43.96,19.4H40.523a1.187,1.187,0,0,1-1.188-1.187V14.8a1.187,1.187,0,0,1,1.188-1.187H43.96A1.187,1.187,0,0,1,45.148,14.8Zm35.34-3.481a1.1,1.1,0,0,1-1.1,1.1H53.55a1.1,1.1,0,0,1,0-2.2H79.386a1.1,1.1,0,0,1,1.1,1.1m0,3.543a1.1,1.1,0,0,1-1.1,1.1h-28.8a1.1,1.1,0,1,1,0-2.2h28.8a1.1,1.1,0,0,1,1.1,1.1M25.769,24.891h-2.29a2.64,2.64,0,0,0-2.636,2.637v2.313a2.64,2.64,0,0,0,2.636,2.636h2.29a2.64,2.64,0,0,0,2.636-2.636V27.528a2.638,2.638,0,0,0-2.636-2.637m.433,4.946a.44.44,0,0,1-.433.433h-2.29a.44.44,0,0,1-.433-.433V27.524a.437.437,0,0,1,.433-.43h2.29a.437.437,0,0,1,.433.43ZM19.374,38.2v5.055a1.1,1.1,0,0,1-2.2,0V38.2a1.1,1.1,0,1,1,2.2,0" fill="#3843d0"/>
  </g>
</svg>
