<svg xmlns="http://www.w3.org/2000/svg" xmlns:xlink="http://www.w3.org/1999/xlink" width="93.818" height="91.605" viewBox="0 0 93.818 91.605">
  <defs>
    <clipPath id="clip-path">
      <rect id="Rectangle_14" data-name="Rectangle 14" width="93.818" height="91.605" transform="translate(0 0)" fill="none"/>
    </clipPath>
  </defs>
  <g id="Group_11" data-name="Group 11" transform="translate(128 -11)">
    <g id="Group_8" data-name="Group 8" transform="translate(-128 11)" clip-path="url(#clip-path)">
      <path id="Path_1" data-name="Path 1" d="M83.125,0H10.678A10.69,10.69,0,0,0,0,10.678V80.912A10.7,10.7,0,0,0,10.678,91.6H83.139A10.693,10.693,0,0,0,93.818,80.912V10.678A10.7,10.7,0,0,0,83.125,0M91.59,80.926a8.468,8.468,0,0,1-8.451,8.465H10.678a8.459,8.459,0,0,1-8.451-8.465V22.812H8.094L13.01,17.9H34.025l4.916,4.916H91.59Zm0-60.342H39.862l-4.916-4.916H12.074L7.158,20.584H2.213V10.678a8.455,8.455,0,0,1,8.451-8.451H83.125a8.455,8.455,0,0,1,8.451,8.451v9.906Z" transform="translate(0 0)" fill="#3843d0"/>
      <path id="Path_2" data-name="Path 2" d="M46.941,4.41a4.864,4.864,0,1,0,4.871,4.871A4.874,4.874,0,0,0,46.941,4.41m0,7.485a2.636,2.636,0,1,1,2.644-2.629A2.637,2.637,0,0,1,46.941,11.9" transform="translate(20.411 2.14)" fill="#3843d0"/>
      <path id="Path_3" data-name="Path 3" d="M36.911,4.41a4.864,4.864,0,1,0,4.871,4.871A4.874,4.874,0,0,0,36.911,4.41m0,7.485a2.636,2.636,0,1,1,2.644-2.629A2.637,2.637,0,0,1,36.911,11.9" transform="translate(15.545 2.14)" fill="#3843d0"/>
      <path id="Path_4" data-name="Path 4" d="M56.381,4.41a4.864,4.864,0,1,0,4.871,4.871A4.874,4.874,0,0,0,56.381,4.41m0,7.485a2.636,2.636,0,1,1,2.644-2.629A2.637,2.637,0,0,1,56.381,11.9" transform="translate(24.991 2.14)" fill="#3843d0"/>
      <path id="Path_5" data-name="Path 5" d="M38.021,30.29c-.015-.03-.045-.03-.059-.059a1.912,1.912,0,0,0-.252-.238.521.521,0,0,0-.119-.074,1.072,1.072,0,0,0-.475-.119,1.024,1.024,0,0,0-.475.119c-.045.015-.074.059-.119.074a.648.648,0,0,0-.252.238c-.015.03-.045.03-.059.059L20.392,53.741a1.107,1.107,0,0,0-.119,1.01l4.426,12.1a1.1,1.1,0,0,0,1.04.728H48.432a1.109,1.109,0,0,0,1.04-.728l4.426-12.1a1.153,1.153,0,0,0-.119-1.01ZM37.1,48.855a1.122,1.122,0,0,0,1.114-1.114v-.624a3.1,3.1,0,1,1-2.228,0v.624A1.122,1.122,0,0,0,37.1,48.855M47.675,65.34H26.526L22.561,54.5,35.987,34.553V44.785a5.332,5.332,0,1,0,2.228,0V34.553L51.64,54.5Z" transform="translate(9.801 14.458)" fill="#3843d0"/>
      <path id="Path_6" data-name="Path 6" d="M13.232,18.67a5.332,5.332,0,1,0,5.213,6.446H32.539A26.222,26.222,0,0,0,17.39,44.155H15.162A2.459,2.459,0,0,0,12.7,46.621v5.733a2.469,2.469,0,0,0,2.465,2.465H20.9a2.469,2.469,0,0,0,2.465-2.465V46.621A2.469,2.469,0,0,0,20.9,44.155H19.648A23.965,23.965,0,0,1,37.737,25.739v1.129A2.459,2.459,0,0,0,40.2,29.333h5.733A2.469,2.469,0,0,0,48.4,26.868V25.739A24.006,24.006,0,0,1,66.49,44.155H65.242a2.459,2.459,0,0,0-2.465,2.465v5.733a2.459,2.459,0,0,0,2.465,2.465h5.733a2.469,2.469,0,0,0,2.465-2.465V46.621a2.459,2.459,0,0,0-2.465-2.465H68.747a26.24,26.24,0,0,0-15.164-19.04H67.693a5.332,5.332,0,1,0,0-2.228H48.4V21.135a2.469,2.469,0,0,0-2.465-2.465H40.2a2.469,2.469,0,0,0-2.465,2.465v1.752H18.445a5.348,5.348,0,0,0-5.213-4.218m0,6.446h2.9a3.1,3.1,0,1,1,0-2.228h-2.9a1.114,1.114,0,0,0,0,2.228M20.9,46.383a.235.235,0,0,1,.238.238v5.733a.235.235,0,0,1-.238.238H15.162a.235.235,0,0,1-.238-.238V46.621a.235.235,0,0,1,.238-.238h1.886a26.115,26.115,0,0,0-.134,2.658,1.114,1.114,0,1,0,2.228,0,26.332,26.332,0,0,1,.149-2.658Zm46.1,2.658a1.114,1.114,0,1,0,2.228,0,26.332,26.332,0,0,0-.134-2.658h1.886a.235.235,0,0,1,.238.238v5.733a.235.235,0,0,1-.238.238H65.242A.235.235,0,0,1,65,52.353V46.621a.235.235,0,0,1,.238-.238h1.6a26.09,26.09,0,0,1,.149,2.658M72.906,20.9a3.1,3.1,0,1,1-2.881,4.218h2.881a1.114,1.114,0,0,0,0-2.228h-2.9a3.123,3.123,0,0,1,2.9-1.99m-32.941.238A.235.235,0,0,1,40.2,20.9h5.733a.235.235,0,0,1,.238.238v1.752H39.965Zm0,4.2a23.63,23.63,0,0,1,3.089-.223,24.087,24.087,0,0,1,3.119.223v1.53a.235.235,0,0,1-.238.238H40.2a.235.235,0,0,1-.238-.238v-1.53" transform="translate(3.833 9.058)" fill="#3843d0"/>
    </g>
  </g>
</svg>
