<svg id="Group_369" data-name="Group 369" xmlns="http://www.w3.org/2000/svg" xmlns:xlink="http://www.w3.org/1999/xlink" width="47.566" height="57.443" viewBox="0 0 47.566 57.443">
  <defs>
    <clipPath id="clip-path">
      <rect id="Rectangle_169" data-name="Rectangle 169" width="47.566" height="57.443" fill="none"/>
    </clipPath>
    <clipPath id="clip-path-2">
      <rect id="Rectangle_168" data-name="Rectangle 168" width="47.566" height="57.421" fill="none"/>
    </clipPath>
  </defs>
  <g id="Group_368" data-name="Group 368" clip-path="url(#clip-path)">
    <g id="Group_367" data-name="Group 367" transform="translate(0 0.01)">
      <g id="Group_366" data-name="Group 366" clip-path="url(#clip-path-2)">
        <g id="Group_365" data-name="Group 365">
          <g id="Group_364" data-name="Group 364" clip-path="url(#clip-path-2)">
            <path id="Path_228" data-name="Path 228" d="M47.566,34c-2.318,2.264-4.63,4.492-6.918,6.732q-2.444,2.394-4.881,4.8c-1.78,1.754-3.546,3.524-5.326,5.279S26.76,54.2,24.983,55.956a10.1,10.1,0,0,0-.9,1.239c-.276.374-.469.317-.781,0-1.637-1.688-3.325-3.326-5-4.979-1.479-1.463-3.014-2.872-4.495-4.333s-2.878-3.009-4.361-4.469-3.013-2.872-4.5-4.333S1.979,36.163.5,34.7c-.672-.663-.624-.892-.083-1.658,1.188-1.684,2.309-3.416,3.5-5.1S6.443,24.684,7.632,23s2.168-3.516,3.357-5.2,2.511-3.274,3.7-4.957c1.35-1.911,2.74-3.793,4.09-5.7s2.551-3.927,3.9-5.841a5.551,5.551,0,0,0,.537-.929c.2-.444.415-.442.706-.027,1.278,1.826,2.579,3.637,3.858,5.463s2.6,3.623,3.877,5.449,2.478,3.707,3.757,5.533,2.569,3.644,3.847,5.47,2.636,3.6,3.914,5.423,2.6,3.619,3.883,5.446c.138.2.254.493.515.878M24.984,26.033c0,.764-.018,1.465.052,2.227a1.35,1.35,0,0,0,.46.906c2.552,1.906,2.563,4.665-.007,6.522-.21.152-.591.363-.607.6-.056.818.086,1.632.086,2.456a7,7,0,0,0,6.243-4.854c.546,0,1.067-.051,1.676-.051-.043.371.009.714-.033,1.075.1.055.079.152.186.2,2.19.907,4.4,1.762,6.6,2.646a1.6,1.6,0,0,0,2.079-.539c.353-.4.753-.758,1.11-1.154.508-.563.982-1.075,1.586-1.727-2.021-.179-3.827-.519-5.757-.69.02-.4-.012-.736.006-1.106,2.087.174,4.141.477,6.311.658-1.788-2.53-3.478-5-5.185-7.413-2.315,1.026-4.577,2.194-6.839,3.225a.473.473,0,0,0-.218.457c.107.765.162,1.5.31,2.284-.631,0-1.143.02-1.736.02-.994-3.814-3.328-5.894-6.322-5.735M22.316,38.657c0-.687-.049-1.323-.018-2.02a1.079,1.079,0,0,0-.538-1.047c-2.441-1.764-2.436-4.6,0-6.384.2-.149.637-.306.648-.505.053-.935-.09-1.866-.09-2.795A7.034,7.034,0,0,0,18,27.2a6,6,0,0,0-2.474,4.567c-.647,0-1.354.049-1.978.049.135-.7.352-1.4.486-2.042.079-.378-.018-.55-.433-.727q-2.872-1.226-5.713-2.526a.723.723,0,0,0-1.076.266c-.89,1.3-1.736,2.631-2.642,3.921-.563.8-1.288,1.63-1.912,2.516,1.087-.083,2.152-.347,3.117-.427.983-.082,1.954-.021,2.929-.108.156,1.141.173,1.026-.85,1.085-.8.046-1.582.305-2.379.377-.732.066-1.42.033-2.312.119,1.1,1.132,1.987,2.179,2.944,3.2a1.45,1.45,0,0,0,1.821.324c1.763-.8,3.5-1.662,5.3-2.38.819-.328,1.334-.736,1.046-1.645-.01-.031-.03.01,0-.052.564,0,1.16-.076,1.728-.076a6.421,6.421,0,0,0,6.708,5.013M22.253,5.072c-.17.14-.123.2-.162.249Q20.2,7.994,18.316,10.665c-1.258,1.782-2.5,3.575-3.759,5.355-.285.4-.48.746-.19,1.2,1.455,2.261,2.98,4.477,4.4,6.759a.848.848,0,0,0,1.035.47,12.077,12.077,0,0,1,1.826-.471c.61-.068.6-.337.6-.884-.01-2.293.108-4.586.107-6.879s-.067-4.585-.067-6.878c0-1.379-.014-2.75-.014-4.261m2.816,18.835a14.592,14.592,0,0,1,1.562.334.775.775,0,0,0,1.046-.386c1.62-2.384,3.228-4.777,4.862-7.152.275-.4.393-.743.111-1.137-1.111-1.559-2.316-3.05-3.421-4.612s-2.151-3.167-3.257-4.729c-.269-.381-.563-.715-.94-1.228,0,2.123.077,4.217.077,6.306,0,2.113-.121,4.214-.121,6.311s.081,4.186.081,6.293M18.49,40.024c-1.242,1.962-2.458,3.839-3.693,5.791,1.256,1.326,2.485,2.609,3.738,3.933,1.238,1.308,2.493,2.6,3.764,3.945.033-.249.114-.282.114-.369,0-2-.121-4-.121-6s.073-4,.08-6c0-.4-.219-.515-.585-.591-1.088-.223-2.123-.449-3.3-.71m13.766,6.027c-1.332-1.942-2.587-3.821-3.921-5.692a.927.927,0,0,0-.808-.23c-.64.106-1.25.377-1.888.51-.524.109-.788.3-.784.829.012,1.917.137,3.834.137,5.751s-.073,3.834-.073,5.751c0,.179.033.332.033.712,1.255-1.307,2.415-2.625,3.618-3.879,1.234-1.285,2.459-2.476,3.685-3.752m1.871-28.113c-1.7,2.5-3.281,4.838-4.932,7.27.76.671,1.453,1.276,2.2,1.885.132.107.392.057.578-.018.807-.325,1.667-.53,2.462-.884,1.387-.618,2.713-1.335,4.151-1.979-1.5-2.125-2.93-4.109-4.46-6.274M8.505,24.547c2.155.952,4.155,1.838,6.221,2.719a.7.7,0,0,0,.65-.118c.641-.584,1.2-1.167,1.84-1.815-1.468-2.313-2.858-4.744-4.364-7.117-1.5,2.126-2.86,4.226-4.346,6.331M38.91,39.7c-.062-.1-.035-.041-.052-.048C37.273,39,35.691,38.345,34.1,37.7c-.736-.3-1.525-.872-2.171-.726s-1.214.916-1.791,1.467c-.3.283-.257.559,0,.919.779,1.078,1.453,2.23,2.2,3.328.512.748,1.056,1.434,1.6,2.229,1.709-1.777,3.311-3.5,4.961-5.216M13.1,44.688c1.19-1.894,2.29-3.644,3.4-5.458a.606.606,0,0,0-.087-.593c-.431-.521-.965-.957-1.394-1.479-.267-.324-.479-.507-.848-.33-.847.407-1.663.882-2.521,1.266-1.11.5-2.277.989-3.451,1.515,1.644,1.747,3.264,3.335,4.905,5.079" transform="translate(0 -0.033)" fill="#f5f5f5"/>
          </g>
        </g>
      </g>
    </g>
  </g>
</svg>
