<svg xmlns="http://www.w3.org/2000/svg" xmlns:xlink="http://www.w3.org/1999/xlink" width="145" height="150.216" viewBox="0 0 145 150.216">
  <defs>
    <clipPath id="clip-path">
      <rect id="Rectangle_169" data-name="Rectangle 169" width="65.147" height="78.675" fill="none"/>
    </clipPath>
    <clipPath id="clip-path-2">
      <rect id="Rectangle_168" data-name="Rectangle 168" width="65.147" height="78.644" fill="none"/>
    </clipPath>
  </defs>
  <g id="Group_377" data-name="Group 377" transform="translate(-110 -4817)">
    <text id="techni" transform="translate(110 4956.216)" fill="#f5f5f5" font-size="54" font-family="TTCommons-Bold, TT Commons" font-weight="700"><tspan x="0" y="0">techni</tspan></text>
    <g id="Group_369" data-name="Group 369" transform="translate(150.701 4817)">
      <g id="Group_368" data-name="Group 368" clip-path="url(#clip-path)">
        <g id="Group_367" data-name="Group 367" transform="translate(0 0.013)">
          <g id="Group_366" data-name="Group 366" clip-path="url(#clip-path-2)">
            <g id="Group_365" data-name="Group 365">
              <g id="Group_364" data-name="Group 364" clip-path="url(#clip-path-2)">
                <path id="Path_228" data-name="Path 228" d="M65.147,46.561c-3.174,3.1-6.342,6.152-9.475,9.22q-3.348,3.279-6.685,6.569c-2.439,2.4-4.857,4.826-7.295,7.23s-5.042,4.639-7.476,7.047a13.828,13.828,0,0,0-1.237,1.7c-.378.513-.642.434-1.069-.006C29.67,76,27.357,73.761,25.067,71.5c-2.026-2-4.127-3.933-6.156-5.935s-3.942-4.121-5.973-6.121-4.127-3.933-6.157-5.934S2.71,49.517.681,47.515c-.92-.908-.855-1.221-.114-2.271,1.627-2.307,3.162-4.679,4.79-6.985s3.467-4.464,5.1-6.769,2.969-4.816,4.6-7.122,3.438-4.484,5.067-6.79c1.848-2.617,3.753-5.2,5.6-7.813s3.493-5.378,5.336-8A7.6,7.6,0,0,0,31.789.493c.272-.609.569-.6.966-.036,1.751,2.5,3.532,4.981,5.283,7.482S41.6,12.9,43.349,15.4s3.395,5.078,5.145,7.579,3.518,4.991,5.269,7.492S57.374,35.4,59.125,37.9s3.567,4.957,5.318,7.458c.189.27.348.676.7,1.2M34.218,35.642c0,1.046-.025,2.006.071,3.051a1.849,1.849,0,0,0,.63,1.241c3.495,2.61,3.51,6.389-.009,8.933-.287.208-.81.5-.832.815-.077,1.12.118,2.235.118,3.364A9.592,9.592,0,0,0,42.747,46.4c.748,0,1.461-.07,2.295-.07-.059.508.012.978-.045,1.472.13.076.108.208.255.269,3,1.243,6.028,2.413,9.04,3.624a2.192,2.192,0,0,0,2.847-.738c.484-.547,1.032-1.038,1.521-1.58.7-.772,1.345-1.473,2.172-2.366-2.768-.245-5.242-.711-7.885-.945.028-.551-.016-1.008.009-1.514,2.858.238,5.671.653,8.643.9-2.449-3.465-4.763-6.843-7.1-10.153-3.171,1.4-6.268,3-9.367,4.416a.647.647,0,0,0-.3.626c.146,1.047.222,2.048.424,3.129-.864,0-1.566.027-2.378.027-1.361-5.223-4.558-8.073-8.659-7.854m-3.653,17.29c0-.942-.068-1.812-.024-2.766a1.477,1.477,0,0,0-.736-1.435c-3.344-2.416-3.336-6.3,0-8.743.28-.2.872-.419.888-.692.073-1.28-.124-2.556-.124-3.828a9.634,9.634,0,0,0-5.919,1.774A8.22,8.22,0,0,0,21.261,43.5c-.886,0-1.855.068-2.709.068.185-.959.482-1.921.666-2.8.108-.517-.024-.754-.593-1q-3.933-1.679-7.825-3.459a.991.991,0,0,0-1.473.364c-1.219,1.78-2.378,3.6-3.618,5.37-.771,1.1-1.764,2.233-2.618,3.446,1.489-.114,2.948-.475,4.27-.585,1.346-.112,2.676-.028,4.011-.148.214,1.563.236,1.4-1.164,1.486-1.094.064-2.167.418-3.258.516-1,.09-1.945.045-3.167.163,1.5,1.551,2.721,2.984,4.033,4.385a1.985,1.985,0,0,0,2.494.444c2.415-1.1,4.8-2.276,7.262-3.26,1.122-.449,1.828-1.008,1.433-2.253-.014-.042-.041.013.005-.072.772,0,1.589-.1,2.367-.1.565,3.96,5.184,7.418,9.188,6.866m-.087-46c-.233.192-.169.267-.222.341q-2.585,3.66-5.171,7.318c-1.722,2.44-3.422,4.9-5.149,7.334-.39.55-.658,1.022-.261,1.639,1.992,3.1,4.082,6.132,6.031,9.257a1.161,1.161,0,0,0,1.417.644,16.541,16.541,0,0,1,2.5-.646c.836-.093.82-.462.817-1.211-.014-3.14.148-6.281.147-9.421s-.092-6.28-.092-9.42c0-1.889-.019-3.766-.019-5.835m3.856,25.8a19.985,19.985,0,0,1,2.139.458,1.062,1.062,0,0,0,1.433-.529c2.218-3.266,4.42-6.543,6.659-9.795.377-.547.538-1.017.152-1.558-1.522-2.135-3.172-4.177-4.686-6.317s-2.947-4.337-4.461-6.477c-.369-.522-.77-.979-1.287-1.682,0,2.908.105,5.775.105,8.636,0,2.894-.166,5.771-.166,8.644s.111,5.733.111,8.619M25.324,54.8c-1.7,2.687-3.366,5.258-5.059,7.932,1.72,1.816,3.4,3.573,5.12,5.386,1.7,1.791,3.415,3.565,5.155,5.4.045-.341.156-.387.156-.5,0-2.739-.166-5.479-.165-8.218s.1-5.479.11-8.218c0-.552-.3-.706-.8-.809-1.49-.306-2.908-.615-4.516-.972m18.854,8.254c-1.824-2.66-3.543-5.233-5.37-7.8a1.269,1.269,0,0,0-1.106-.315c-.877.145-1.712.516-2.585.7-.717.15-1.079.411-1.074,1.135.016,2.626.187,5.25.188,7.876s-.1,5.251-.1,7.877c0,.245.046.455.046.976,1.718-1.79,3.307-3.6,4.956-5.313,1.69-1.76,3.368-3.391,5.047-5.139m2.562-38.5c-2.323,3.421-4.494,6.626-6.755,9.957,1.041.92,1.99,1.747,3.015,2.581.18.146.537.078.792-.025,1.106-.445,2.283-.725,3.372-1.211,1.9-.847,3.715-1.828,5.685-2.71-2.057-2.91-4.013-5.628-6.109-8.593M11.648,33.607c2.951,1.3,5.691,2.517,8.52,3.724a.953.953,0,0,0,.89-.162c.878-.8,1.642-1.6,2.52-2.486-2.011-3.168-3.914-6.5-5.977-9.747-2.055,2.911-3.917,5.789-5.953,8.671m41.643,20.76c-.085-.142-.048-.056-.072-.066-2.171-.893-4.337-1.8-6.514-2.674-1.008-.406-2.089-1.194-2.974-.994s-1.663,1.255-2.453,2.009c-.406.388-.353.766,0,1.258,1.067,1.477,1.99,3.055,3.019,4.558.7,1.024,1.447,1.964,2.2,3.053,2.341-2.433,4.534-4.794,6.795-7.144m-35.35,6.825c1.63-2.594,3.136-4.99,4.65-7.475a.83.83,0,0,0-.119-.813c-.591-.713-1.321-1.31-1.909-2.026-.365-.444-.656-.694-1.161-.451-1.16.558-2.277,1.208-3.453,1.734-1.52.68-3.119,1.355-4.727,2.075,2.252,2.393,4.47,4.568,6.718,6.956" transform="translate(0 -0.033)" fill="#f5f5f5"/>
              </g>
            </g>
          </g>
        </g>
      </g>
    </g>
  </g>
</svg>
